<svg xmlns="http://www.w3.org/2000/svg" xmlns:xlink="http://www.w3.org/1999/xlink" version="1.1" width="256" height="256" viewBox="0 0 256 256" xml:space="preserve">

<defs>
</defs>
<g style="stroke: none; stroke-width: 0; stroke-dasharray: none; stroke-linecap: butt; stroke-linejoin: miter; stroke-miterlimit: 10; fill: none; fill-rule: nonzero; opacity: 1;" transform="translate(1.4065934065934016 1.4065934065934016) scale(2.81 2.81)" >
	<path d="M 48.03 0.148 c 15.882 1.545 27.589 14.968 27.189 30.92 c -0.542 21.585 -21.858 37.149 -28.921 57.987 c -0.425 1.253 -2.168 1.263 -2.592 0.01 c -7.151 -21.112 -28.935 -36.809 -28.935 -58.836 C 14.771 12.535 29.974 -1.609 48.03 0.148 z" style="stroke: none; stroke-width: 1; stroke-dasharray: none; stroke-linecap: butt; stroke-linejoin: miter; stroke-miterlimit: 10; fill: rgb(4,136,219); fill-rule: nonzero; opacity: 1;" transform=" matrix(1 0 0 1 0 0) " stroke-linecap="round" />
	<circle cx="44.998" cy="30.398" r="23.418" style="stroke: none; stroke-width: 1; stroke-dasharray: none; stroke-linecap: butt; stroke-linejoin: miter; stroke-miterlimit: 10; fill: rgb(227,246,255); fill-rule: nonzero; opacity: 1;" transform="  matrix(1 0 0 1 0 0) "/>
	<path d="M 50.665 45.772 c -0.086 0 -0.173 -0.008 -0.259 -0.024 c -0.453 -0.086 -0.833 -0.389 -1.018 -0.811 l -4.17 -9.536 c -0.095 -0.216 -0.281 -0.364 -0.513 -0.408 c -0.229 -0.044 -0.458 0.027 -0.625 0.193 l -2.562 2.561 c -0.215 0.215 -0.293 0.528 -0.204 0.818 l 0.76 2.494 c 0.12 0.396 0.013 0.825 -0.28 1.118 l -0.996 0.996 c -0.258 0.257 -0.626 0.374 -0.985 0.311 c -0.359 -0.063 -0.666 -0.297 -0.821 -0.627 l -1.931 -4.118 l -4.197 -1.968 c -0.33 -0.155 -0.565 -0.461 -0.627 -0.82 c -0.063 -0.359 0.054 -0.727 0.311 -0.985 l 0.996 -0.996 c 0.293 -0.293 0.722 -0.4 1.118 -0.279 l 2.494 0.76 c 0.29 0.088 0.603 0.01 0.818 -0.204 l 2.583 -2.583 c 0.166 -0.166 0.237 -0.394 0.193 -0.626 c -0.044 -0.231 -0.192 -0.418 -0.408 -0.512 l -9.536 -4.17 c -0.422 -0.185 -0.725 -0.565 -0.811 -1.018 c -0.086 -0.453 0.058 -0.918 0.384 -1.244 l 0.965 -0.965 c 0.334 -0.335 0.81 -0.476 1.273 -0.378 l 12.886 2.724 c 0.643 0.137 1.303 -0.06 1.767 -0.524 l 6.327 -6.327 l 0 0 c 0.954 -0.953 2.47 -1.026 3.453 -0.163 c 0.525 0.461 0.826 1.098 0.849 1.793 c 0.022 0.686 -0.243 1.357 -0.728 1.843 l -6.377 6.376 c -0.464 0.465 -0.66 1.125 -0.524 1.768 l 2.724 12.885 c 0.098 0.463 -0.043 0.939 -0.378 1.274 l -0.966 0.965 C 51.386 45.628 51.031 45.772 50.665 45.772 z" style="stroke: none; stroke-width: 1; stroke-dasharray: none; stroke-linecap: butt; stroke-linejoin: miter; stroke-miterlimit: 10; fill: rgb(4,136,219); fill-rule: nonzero; opacity: 1;" transform=" matrix(1 0 0 1 0 0) " stroke-linecap="round" />
</g>
</svg>